<svg width="1601" height="470" viewBox="0 0 1601 470" fill="none" xmlns="http://www.w3.org/2000/svg">
<rect width="1601" height="470" fill="#0e0d0d"/>
<g clip-path="url(#clip0_5_30)">
<path d="M554.842 332.958L553.741 333.118C553.247 333.118 553 332.904 553 332.476C553 332.232 553.135 332.002 553.404 331.788C553.689 331.559 554.161 331.444 554.82 331.444C555.479 331.444 555.996 331.46 556.37 331.49L557.449 331.582C558.482 331.704 559.493 331.765 560.482 331.765C561.995 331.765 563.485 331.689 564.953 331.536C567.619 331.261 569.664 331.123 571.087 331.123C576.928 331.123 581.609 332.728 585.129 335.939C588.649 339.15 590.409 343.446 590.409 348.827C590.409 354.056 588.462 358.413 584.568 361.899C580.733 365.323 575.992 367.035 570.345 367.035C569.102 367.035 568.039 366.974 567.155 366.852L564.751 366.508C563.103 366.263 561.92 366.141 561.201 366.141C560.497 366.141 560.01 366.149 559.74 366.164C559.471 366.164 559.201 366.172 558.932 366.187C558.272 366.217 557.793 366.256 557.494 366.302C555.292 366.623 553.929 366.569 553.404 366.141C553.135 365.912 553 365.675 553 365.43C553 365.017 553.247 364.811 553.741 364.811L555.179 364.971C556.033 364.971 556.617 364.696 556.932 364.146C557.396 363.305 557.651 362.418 557.696 361.486C557.756 360.553 557.786 359.766 557.786 359.124V339.081C557.786 337.2 557.681 335.962 557.471 335.366C557.261 334.769 557.074 334.303 556.909 333.967C556.55 333.294 555.861 332.958 554.842 332.958ZM562.863 336.421V361.004C562.863 362.38 563.35 363.336 564.324 363.871C565.402 364.452 567.215 364.742 569.761 364.742C572.323 364.742 574.517 364.459 576.344 363.894C578.172 363.328 579.714 362.434 580.973 361.211C583.564 358.673 584.86 354.713 584.86 349.332C584.86 344.088 583.482 340.09 580.726 337.338C578.059 334.678 574.412 333.348 569.784 333.348C565.17 333.348 562.863 334.372 562.863 336.421ZM609.125 364.811C609.619 364.811 609.867 365.017 609.867 365.43C609.867 365.675 609.724 365.912 609.44 366.141C609.17 366.37 608.736 366.485 608.136 366.485C607.268 366.485 606.549 366.454 605.98 366.393C605.425 366.317 605.028 366.271 604.789 366.256C604.549 366.225 604.302 366.202 604.047 366.187C603.508 366.156 603.021 366.141 602.587 366.141C601.419 366.141 600.587 366.179 600.093 366.256C597.711 366.623 596.258 366.584 595.734 366.141C595.45 365.912 595.307 365.675 595.307 365.43C595.307 365.017 595.554 364.811 596.049 364.811L597.487 364.971C598.34 364.971 598.925 364.696 599.239 364.146C599.703 363.305 599.958 362.418 600.003 361.486C600.063 360.553 600.093 359.766 600.093 359.124V338.806C600.093 336.91 599.988 335.671 599.778 335.091C599.569 334.494 599.389 334.059 599.239 333.783C598.925 333.233 598.34 332.958 597.487 332.958L596.049 333.118C595.554 333.118 595.307 332.912 595.307 332.499C595.307 332.255 595.442 332.018 595.712 331.788C595.996 331.559 596.438 331.444 597.037 331.444C597.906 331.444 598.618 331.482 599.172 331.559C599.741 331.62 600.145 331.666 600.385 331.697C600.625 331.712 600.872 331.727 601.126 331.742C601.666 331.773 602.152 331.788 602.587 331.788C603.755 331.788 604.587 331.75 605.081 331.674C606.069 331.521 606.976 331.444 607.8 331.444C608.623 331.444 609.17 331.559 609.44 331.788C609.724 332.018 609.867 332.255 609.867 332.499C609.867 332.912 609.619 333.118 609.125 333.118L607.687 332.958C606.833 332.958 606.249 333.233 605.935 333.783C605.47 334.624 605.208 335.511 605.148 336.444C605.103 337.376 605.081 338.163 605.081 338.806V359.124C605.081 361.019 605.186 362.265 605.395 362.862C605.605 363.443 605.785 363.871 605.935 364.146C606.249 364.696 606.833 364.971 607.687 364.971L609.125 364.811ZM616.45 366.141L613.304 366.485C612.705 366.485 612.271 366.386 612.001 366.187C611.717 365.973 611.574 365.728 611.574 365.453C611.574 365.025 611.821 364.811 612.316 364.811L613.416 364.971C614.105 364.971 614.667 364.681 615.102 364.1C615.925 363.03 616.951 361.111 618.18 358.344C625.834 341.405 629.781 332.683 630.021 332.178C630.275 331.674 630.485 331.299 630.649 331.054C630.904 330.672 631.167 330.481 631.436 330.481C631.705 330.481 631.968 330.665 632.223 331.031C632.612 331.643 633.158 332.728 633.862 334.288L645.568 360.408C646.677 362.885 647.651 364.337 648.489 364.765C648.759 364.903 649.036 364.971 649.32 364.971L650.421 364.788C650.916 364.788 651.163 365.01 651.163 365.453C651.163 366.141 650.564 366.485 649.365 366.485L645.007 366.141L639.502 366.485C638.738 366.485 638.191 366.37 637.862 366.141C637.548 365.912 637.39 365.682 637.39 365.453C637.39 365.025 637.63 364.811 638.109 364.811L639.704 365.04C640.139 365.04 640.453 364.979 640.648 364.857C640.843 364.719 640.94 364.513 640.94 364.238C640.94 363.962 640.925 363.725 640.895 363.527C640.865 363.328 640.82 363.106 640.76 362.862C640.625 362.403 640.378 361.776 640.019 360.981L638.289 357.289C638.064 356.8 637.824 356.479 637.57 356.326C637.15 356.066 636.551 355.936 635.773 355.936H624.156C623.048 355.936 622.314 356.211 621.954 356.762C621.835 356.945 621.722 357.167 621.617 357.427L620.516 360.087C619.693 362.105 619.281 363.351 619.281 363.825C619.281 364.589 619.857 364.971 621.011 364.971L622.112 364.788C622.591 364.788 622.831 365.01 622.831 365.453C622.831 366.141 622.119 366.485 620.696 366.485C619.857 366.485 619.183 366.447 618.674 366.37C617.656 366.217 616.914 366.141 616.45 366.141ZM623.505 353.23C623.505 353.704 624.351 353.941 626.044 353.941H633.75C635.188 353.941 636.012 353.811 636.222 353.551C636.297 353.459 636.334 353.352 636.334 353.23C636.334 353.108 636.282 352.909 636.177 352.634L631.189 340.319C630.605 338.851 630.163 338.118 629.863 338.118C629.623 338.118 629.317 338.584 628.942 339.516L623.797 352.198C623.602 352.641 623.505 352.985 623.505 353.23ZM664.104 366.485L659.881 366.141C659.476 366.141 658.974 366.179 658.375 366.256C655.349 366.684 653.837 366.409 653.837 365.43C653.837 365.017 654.084 364.811 654.578 364.811L656.016 364.971C656.87 364.971 657.454 364.696 657.769 364.146C658.233 363.305 658.488 362.418 658.532 361.486C658.592 360.553 658.622 359.766 658.622 359.124L658.645 340.044C658.645 339.295 658.458 338.515 658.083 337.705C657.709 336.895 657.402 336.321 657.162 335.985C656.922 335.649 656.66 335.327 656.376 335.022C656.091 334.701 655.784 334.395 655.454 334.104C654.705 333.462 654.084 333.05 653.589 332.866C652.796 332.576 652.399 332.27 652.399 331.949C652.399 331.612 652.796 331.444 653.589 331.444L660.532 331.697L683.899 356.899V338.966C683.899 337.07 683.794 335.832 683.584 335.251C683.375 334.655 683.195 334.211 683.045 333.921C682.73 333.386 682.147 333.118 681.292 333.118L679.653 333.279C679.158 333.279 678.911 333.072 678.911 332.66C678.911 332.415 679.053 332.178 679.338 331.949C679.638 331.719 680.169 331.605 680.933 331.605L685.157 331.949C685.561 331.949 686.063 331.903 686.662 331.811C687.696 331.674 688.572 331.605 689.291 331.605C690.01 331.605 690.504 331.719 690.774 331.949C691.058 332.178 691.201 332.415 691.201 332.66C691.201 333.072 690.954 333.279 690.46 333.279L689.022 333.118C688.168 333.118 687.584 333.394 687.269 333.944C686.805 334.785 686.543 335.671 686.483 336.604C686.438 337.537 686.415 338.324 686.415 338.966V362.334C686.415 364.184 686.58 365.415 686.91 366.026C687.029 366.24 687.194 366.439 687.404 366.623C687.703 366.882 687.853 367.15 687.853 367.425C687.853 367.792 687.636 367.976 687.202 367.976C686.617 367.976 685.824 367.418 684.82 366.302L661.139 340.48V359.124C661.139 361.019 661.243 362.265 661.453 362.862C661.663 363.443 661.85 363.871 662.015 364.146C662.314 364.696 662.891 364.971 663.745 364.971L665.385 364.811C665.879 364.811 666.127 365.017 666.127 365.43C666.127 365.675 665.977 365.912 665.677 366.141C665.393 366.37 664.869 366.485 664.104 366.485ZM696.975 366.141L693.83 366.485C693.23 366.485 692.796 366.386 692.526 366.187C692.242 365.973 692.099 365.728 692.099 365.453C692.099 365.025 692.347 364.811 692.841 364.811L693.942 364.971C694.631 364.971 695.193 364.681 695.627 364.1C696.451 363.03 697.477 361.111 698.705 358.344C706.359 341.405 710.306 332.683 710.546 332.178C710.8 331.674 711.01 331.299 711.175 331.054C711.43 330.672 711.692 330.481 711.961 330.481C712.231 330.481 712.493 330.665 712.748 331.031C713.137 331.643 713.684 332.728 714.388 334.288L726.094 360.408C727.202 362.885 728.176 364.337 729.015 364.765C729.284 364.903 729.561 364.971 729.846 364.971L730.947 364.788C731.441 364.788 731.688 365.01 731.688 365.453C731.688 366.141 731.089 366.485 729.891 366.485L725.532 366.141L720.027 366.485C719.264 366.485 718.717 366.37 718.387 366.141C718.073 365.912 717.915 365.682 717.915 365.453C717.915 365.025 718.155 364.811 718.634 364.811L720.23 365.04C720.664 365.04 720.979 364.979 721.173 364.857C721.368 364.719 721.465 364.513 721.465 364.238C721.465 363.962 721.45 363.725 721.42 363.527C721.391 363.328 721.346 363.106 721.285 362.862C721.151 362.403 720.903 361.776 720.544 360.981L718.814 357.289C718.589 356.8 718.35 356.479 718.095 356.326C717.675 356.066 717.077 355.936 716.298 355.936H704.682C703.573 355.936 702.839 356.211 702.48 356.762C702.36 356.945 702.247 357.167 702.143 357.427L701.042 360.087C700.218 362.105 699.806 363.351 699.806 363.825C699.806 364.589 700.383 364.971 701.536 364.971L702.637 364.788C703.116 364.788 703.356 365.01 703.356 365.453C703.356 366.141 702.645 366.485 701.222 366.485C700.383 366.485 699.709 366.447 699.199 366.37C698.181 366.217 697.439 366.141 696.975 366.141ZM704.03 353.23C704.03 353.704 704.877 353.941 706.569 353.941H714.276C715.714 353.941 716.537 353.811 716.747 353.551C716.822 353.459 716.859 353.352 716.859 353.23C716.859 353.108 716.807 352.909 716.702 352.634L711.714 340.319C711.13 338.851 710.688 338.118 710.388 338.118C710.149 338.118 709.842 338.584 709.468 339.516L704.322 352.198C704.128 352.641 704.03 352.985 704.03 353.23ZM758.987 364.811C759.481 364.811 759.728 365.017 759.728 365.43C759.728 365.675 759.586 365.912 759.301 366.141C759.032 366.37 758.597 366.485 757.999 366.485C757.129 366.485 756.41 366.454 755.842 366.393C755.287 366.317 754.89 366.271 754.65 366.256C754.411 366.225 754.164 366.202 753.909 366.187C753.37 366.156 752.883 366.141 752.449 366.141C751.28 366.141 750.449 366.179 749.955 366.256C747.573 366.623 746.12 366.584 745.596 366.141C745.311 365.912 745.169 365.675 745.169 365.43C745.169 365.017 745.416 364.811 745.911 364.811L747.348 364.971C748.202 364.971 748.786 364.696 749.101 364.146C749.565 363.305 749.82 362.418 749.865 361.486C749.925 360.553 749.955 359.766 749.955 359.124V339.081C749.955 337.2 749.85 335.962 749.64 335.366C749.431 334.769 749.236 334.303 749.056 333.967C748.712 333.294 748.03 332.958 747.011 332.958L745.911 333.118C745.416 333.118 745.169 332.904 745.169 332.476C745.169 332.232 745.304 332.002 745.573 331.788C745.858 331.559 746.33 331.444 746.989 331.444C747.648 331.444 748.165 331.46 748.539 331.49L749.618 331.582C750.651 331.704 751.558 331.765 752.336 331.765C753.115 331.765 753.707 331.758 754.111 331.742C754.531 331.727 754.913 331.712 755.257 331.697C755.602 331.666 755.931 331.635 756.246 331.605C756.561 331.559 756.867 331.521 757.167 331.49C757.481 331.46 757.804 331.429 758.133 331.398C758.463 331.353 758.822 331.307 759.212 331.261C760.05 331.184 761.271 331.146 762.874 331.146C764.477 331.146 766.087 331.406 767.705 331.926C769.322 332.43 770.663 333.111 771.726 333.967C773.853 335.71 774.917 337.888 774.917 340.503C774.917 343.82 773.696 346.442 771.254 348.368C769.037 350.111 766.274 350.983 762.963 350.983H762.177C763.63 351.762 764.768 352.626 765.593 353.574C766.851 355.057 768.011 356.746 769.075 358.642C770.153 360.523 770.985 361.83 771.569 362.564C772.153 363.297 772.707 363.871 773.232 364.283C774.13 364.987 775.037 365.338 775.95 365.338C776.19 365.338 776.437 365.293 776.692 365.201C776.946 365.094 777.119 365.04 777.208 365.04C777.613 365.04 777.815 365.254 777.815 365.682C777.815 365.988 777.583 366.248 777.119 366.462C776.669 366.661 775.988 366.76 775.074 366.76C774.161 366.76 773.262 366.691 772.378 366.554C771.494 366.432 770.67 366.21 769.906 365.889C769.158 365.552 768.439 365.101 767.75 364.536C767.075 363.97 766.386 363.244 765.682 362.357C764.454 360.798 762.874 358.306 760.942 354.881C759.848 352.955 758.463 351.625 756.785 350.891C756.231 350.646 755.617 350.432 754.943 350.249V359.124C754.943 361.019 755.047 362.265 755.257 362.862C755.467 363.443 755.647 363.871 755.796 364.146C756.111 364.696 756.695 364.971 757.549 364.971L758.987 364.811ZM754.943 347.543C756.92 348.582 759.301 349.102 762.087 349.102C764.125 349.102 765.817 348.506 767.165 347.314C768.693 345.953 769.457 344.134 769.457 341.856C769.457 339.516 768.596 337.529 766.873 335.893C765.076 334.196 762.799 333.348 760.043 333.348C757.227 333.348 755.602 333.921 755.167 335.068C755.017 335.45 754.943 335.901 754.943 336.421V347.543ZM800.305 364.971L802.417 364.742C802.657 364.742 802.837 364.811 802.957 364.949C803.092 365.086 803.159 365.262 803.159 365.476C803.159 365.69 802.979 365.912 802.62 366.141C802.275 366.37 801.856 366.485 801.361 366.485C800.867 366.485 800.478 366.485 800.193 366.485C799.923 366.47 799.654 366.454 799.385 366.439C798.95 366.409 798.568 366.378 798.238 366.347C797.924 366.302 797.647 366.271 797.407 366.256C797.168 366.225 796.913 366.202 796.643 366.187C796.134 366.156 795.654 366.141 795.205 366.141C794.037 366.141 793.236 366.179 792.801 366.256C792.382 366.317 792.052 366.363 791.813 366.393C791.573 366.409 791.311 366.424 791.026 366.439C789.319 366.531 788.263 366.447 787.858 366.187C787.454 365.927 787.252 365.69 787.252 365.476C787.252 364.987 787.499 364.742 787.993 364.742L790.105 364.971C790.959 364.971 791.543 364.696 791.858 364.146C792.322 363.305 792.577 362.418 792.622 361.486C792.681 360.553 792.711 359.766 792.711 359.124V351.166L780.848 333.783C780.624 333.462 780.369 333.241 780.084 333.118C779.815 332.996 779.403 332.935 778.849 332.935L777.613 333.118C777.119 333.118 776.871 332.92 776.871 332.522C776.871 332.247 777.036 332.002 777.365 331.788C777.68 331.559 778.175 331.444 778.849 331.444L783.275 331.765L789.252 331.444C790.69 331.444 791.408 331.804 791.408 332.522C791.408 332.904 791.169 333.095 790.69 333.095L788.982 332.889C787.963 332.889 787.454 333.202 787.454 333.829C787.454 334.364 787.791 335.152 788.465 336.191L796.755 349.011L804.372 337.544C805.526 335.725 806.102 334.494 806.102 333.852C806.102 333.195 805.593 332.866 804.574 332.866L802.867 333.095C802.388 333.095 802.148 332.904 802.148 332.522C802.148 332.232 802.313 331.979 802.642 331.765C802.972 331.551 803.436 331.444 804.035 331.444C804.649 331.444 805.151 331.46 805.541 331.49L806.619 331.605C807.458 331.712 808.102 331.765 808.551 331.765C809.24 331.765 809.81 331.735 810.259 331.674L811.292 331.49C811.547 331.46 811.876 331.444 812.281 331.444C812.686 331.444 813.06 331.544 813.405 331.742C813.749 331.926 813.921 332.201 813.921 332.568C813.921 332.935 813.674 333.118 813.18 333.118L811.697 332.935C810.873 332.935 810.251 333.218 809.832 333.783L797.699 351.258V359.124C797.699 361.019 797.804 362.265 798.014 362.862C798.223 363.443 798.411 363.871 798.575 364.146C798.875 364.696 799.452 364.971 800.305 364.971ZM847.623 361.853C844.073 365.293 839.58 367.012 834.142 367.012C828.69 367.012 824.271 365.338 820.887 361.99C817.621 358.78 815.988 354.705 815.988 349.767C815.988 344.172 817.733 339.562 821.223 335.939C823.41 333.692 826.031 332.148 829.087 331.307C830.585 330.894 831.955 330.687 833.199 330.687C834.457 330.687 835.453 330.749 836.187 330.871C836.936 330.978 837.61 331.116 838.209 331.284C839.138 331.544 839.931 331.811 840.59 332.086C841.564 332.499 842.171 332.706 842.41 332.706C842.89 332.706 843.369 332.461 843.848 331.972L844.815 330.986C845.234 330.558 845.541 330.344 845.736 330.344C846.11 330.344 846.297 330.665 846.297 331.307C846.297 331.933 846.305 332.476 846.32 332.935C846.35 333.378 846.395 333.814 846.455 334.242C846.59 335.236 846.777 336.184 847.016 337.086L847.556 339.218C847.705 339.753 847.78 340.197 847.78 340.548C847.78 341.191 847.601 341.512 847.241 341.512C846.942 341.512 846.709 341.336 846.545 340.984C845.301 338.538 843.466 336.581 841.04 335.113C838.658 333.661 836.187 332.935 833.626 332.935C830.016 332.935 826.99 334.181 824.549 336.673C822.062 339.211 820.819 342.444 820.819 346.373C820.819 348.942 821.223 351.327 822.032 353.528C822.856 355.714 823.964 357.618 825.357 359.238C826.765 360.844 828.398 362.105 830.256 363.022C832.128 363.924 834.12 364.375 836.232 364.375C839.767 364.375 842.538 362.801 844.545 359.651C845.279 358.489 845.856 357.06 846.275 355.363C846.38 354.965 846.485 354.644 846.59 354.4C846.709 354.14 846.912 354.01 847.196 354.01C847.481 354.01 847.623 354.461 847.623 355.363V361.853ZM866.856 364.811C867.35 364.811 867.597 365.017 867.597 365.43C867.597 365.675 867.455 365.912 867.17 366.141C866.901 366.37 866.466 366.485 865.867 366.485C864.998 366.485 864.279 366.454 863.71 366.393C863.156 366.317 862.759 366.271 862.519 366.256C862.28 366.225 862.025 366.202 861.755 366.187C861.246 366.156 860.767 366.141 860.317 366.141C859.149 366.141 858.318 366.179 857.823 366.256C855.442 366.623 853.982 366.584 853.442 366.141C853.173 365.912 853.038 365.675 853.038 365.43C853.038 365.017 853.285 364.811 853.779 364.811L855.217 364.971C856.071 364.971 856.655 364.696 856.97 364.146C857.434 363.305 857.689 362.418 857.734 361.486C857.794 360.553 857.823 359.766 857.823 359.124V338.806C857.823 336.91 857.719 335.671 857.509 335.091C857.299 334.494 857.112 334.059 856.947 333.783C856.648 333.233 856.071 332.958 855.217 332.958L853.779 333.118C853.285 333.118 853.038 332.912 853.038 332.499C853.038 332.255 853.173 332.018 853.442 331.788C853.727 331.559 854.169 331.444 854.768 331.444C855.637 331.444 856.348 331.482 856.903 331.559C857.471 331.62 857.876 331.666 858.116 331.697C858.356 331.712 858.61 331.727 858.88 331.742C859.389 331.773 859.868 331.788 860.317 331.788C861.486 331.788 862.317 331.75 862.811 331.674C863.8 331.521 864.706 331.444 865.53 331.444C866.354 331.444 866.901 331.559 867.17 331.788C867.455 332.018 867.597 332.255 867.597 332.499C867.597 332.912 867.35 333.118 866.856 333.118L865.418 332.958C864.564 332.958 863.98 333.233 863.665 333.783C863.201 334.624 862.939 335.511 862.879 336.444C862.834 337.376 862.811 338.163 862.811 338.806V343.438C862.811 343.866 862.939 344.156 863.193 344.309C863.673 344.585 864.369 344.722 865.283 344.722H878.899C880.546 344.722 881.37 344.294 881.37 343.438V338.806C881.37 336.91 881.265 335.671 881.056 335.091C880.846 334.494 880.659 334.059 880.494 333.783C880.194 333.233 879.618 332.958 878.764 332.958L877.326 333.118C876.831 333.118 876.584 332.912 876.584 332.499C876.584 332.255 876.719 332.018 876.989 331.788C877.273 331.559 877.716 331.444 878.314 331.444C879.183 331.444 879.895 331.482 880.449 331.559C881.018 331.62 881.423 331.666 881.662 331.697C881.902 331.712 882.156 331.727 882.426 331.742C882.935 331.773 883.414 331.788 883.864 331.788C885.032 331.788 885.864 331.75 886.358 331.674C887.346 331.521 888.253 331.444 889.077 331.444C889.9 331.444 890.447 331.559 890.717 331.788C891.002 332.018 891.144 332.255 891.144 332.499C891.144 332.912 890.896 333.118 890.402 333.118L888.964 332.958C888.11 332.958 887.526 333.233 887.212 333.783C886.748 334.624 886.485 335.511 886.425 336.444C886.381 337.376 886.358 338.163 886.358 338.806V359.124C886.358 361.019 886.463 362.265 886.672 362.862C886.882 363.443 887.07 363.871 887.234 364.146C887.534 364.696 888.11 364.971 888.964 364.971L890.402 364.811C890.896 364.811 891.144 365.017 891.144 365.43C891.144 365.675 891.002 365.912 890.717 366.141C890.447 366.37 890.013 366.485 889.414 366.485C888.545 366.485 887.826 366.454 887.257 366.393C886.703 366.317 886.305 366.271 886.066 366.256C885.826 366.225 885.571 366.202 885.302 366.187C884.793 366.156 884.313 366.141 883.864 366.141C882.695 366.141 881.864 366.179 881.37 366.256C878.988 366.623 877.528 366.584 876.989 366.141C876.719 365.912 876.584 365.675 876.584 365.43C876.584 365.017 876.831 364.811 877.326 364.811L878.764 364.971C879.618 364.971 880.201 364.696 880.516 364.146C880.981 363.305 881.235 362.418 881.28 361.486C881.34 360.553 881.37 359.766 881.37 359.124V348.575C881.37 348.147 881.168 347.78 880.763 347.474C880.374 347.168 879.752 347.015 878.899 347.015H865.283C864.414 347.015 863.785 347.168 863.396 347.474C863.006 347.78 862.811 348.147 862.811 348.575V359.124C862.811 361.019 862.916 362.265 863.126 362.862C863.336 363.443 863.523 363.871 863.688 364.146C863.987 364.696 864.564 364.971 865.418 364.971L866.856 364.811ZM909.096 364.811C909.59 364.811 909.837 365.017 909.837 365.43C909.837 365.675 909.695 365.912 909.41 366.141C909.141 366.37 908.706 366.485 908.107 366.485C907.238 366.485 906.519 366.454 905.95 366.393C905.396 366.317 904.999 366.271 904.759 366.256C904.52 366.225 904.265 366.202 903.996 366.187C903.486 366.156 903.007 366.141 902.558 366.141C901.389 366.141 900.558 366.179 900.064 366.256C897.682 366.623 896.221 366.584 895.682 366.141C895.413 365.912 895.278 365.675 895.278 365.43C895.278 365.017 895.525 364.811 896.019 364.811L897.457 364.971C898.311 364.971 898.895 364.696 899.209 364.146C899.674 363.305 899.928 362.418 899.974 361.486C900.034 360.553 900.064 359.766 900.064 359.124V338.806C900.064 336.91 899.958 335.671 899.749 335.091C899.539 334.494 899.352 334.059 899.187 333.783C898.887 333.233 898.311 332.958 897.457 332.958L896.019 333.118C895.525 333.118 895.278 332.912 895.278 332.499C895.278 332.255 895.413 332.018 895.682 331.788C895.967 331.559 896.409 331.444 897.008 331.444C897.877 331.444 898.588 331.482 899.142 331.559C899.712 331.62 900.116 331.666 900.356 331.697C900.595 331.712 900.85 331.727 901.12 331.742C901.629 331.773 902.108 331.788 902.558 331.788C903.726 331.788 904.557 331.75 905.052 331.674C906.04 331.521 906.946 331.444 907.77 331.444C908.594 331.444 909.141 331.559 909.41 331.788C909.695 332.018 909.837 332.255 909.837 332.499C909.837 332.912 909.59 333.118 909.096 333.118L907.658 332.958C906.804 332.958 906.22 333.233 905.905 333.783C905.441 334.624 905.179 335.511 905.119 336.444C905.074 337.376 905.052 338.163 905.052 338.806V346.671C906.414 346.32 907.8 345.632 909.208 344.607C911.59 342.88 914.33 340.495 917.431 337.453C919.229 335.618 920.128 334.364 920.128 333.692C920.128 333.187 919.776 332.935 919.072 332.935L917.634 333.118C917.139 333.118 916.892 332.912 916.892 332.499C916.892 332.255 917.034 332.018 917.319 331.788C917.619 331.559 918.045 331.444 918.599 331.444C919.169 331.444 919.618 331.46 919.948 331.49L920.959 331.582C921.962 331.704 922.674 331.765 923.093 331.765L926.553 331.444C927.317 331.444 927.826 331.559 928.081 331.788C928.35 332.018 928.486 332.255 928.486 332.499C928.486 332.912 928.238 333.118 927.744 333.118L926.306 332.958C925.512 332.958 924.172 333.921 922.285 335.847C919.034 338.997 916.226 341.565 913.859 343.553C911.507 345.54 909.508 346.908 907.86 347.657C910.945 348.177 913.492 349.186 915.499 350.685C917.791 352.382 919.753 354.904 921.386 358.252C922.973 361.585 924.569 363.794 926.171 364.88C926.621 365.186 926.973 365.338 927.227 365.338C927.557 365.338 927.804 365.308 927.969 365.247C928.553 365.063 928.905 365.063 929.025 365.247C929.16 365.415 929.227 365.56 929.227 365.682C929.227 366.401 928.471 366.76 926.958 366.76C925.445 366.76 924.127 366.592 923.004 366.256C921.895 365.919 920.862 365.369 919.903 364.605C918.016 363.091 916.27 360.568 914.667 357.037C912.78 353.062 910.481 350.646 907.77 349.79C906.901 349.515 905.995 349.347 905.052 349.286V359.124C905.052 361.019 905.156 362.265 905.366 362.862C905.576 363.443 905.763 363.871 905.928 364.146C906.227 364.696 906.804 364.971 907.658 364.971L909.096 364.811ZM930.777 349.653C930.777 346.992 931.211 344.5 932.08 342.177C932.949 339.838 934.193 337.819 935.81 336.122C939.27 332.499 943.839 330.687 949.515 330.687C952.811 330.687 955.829 331.521 958.57 333.187C961.192 334.762 963.266 336.902 964.794 339.608C966.322 342.33 967.085 345.28 967.085 348.46C967.085 354.208 965.251 358.78 961.581 362.174C958.106 365.399 953.807 367.012 948.684 367.012C943.277 367.012 938.933 365.422 935.653 362.242C932.403 359.078 930.777 354.881 930.777 349.653ZM935.45 346.098C935.45 349.737 936.244 353.016 937.832 355.936C939.3 358.596 941.262 360.683 943.719 362.197C946.101 363.664 948.602 364.398 951.223 364.398C954.249 364.398 956.743 363.32 958.705 361.165C960.817 358.841 961.873 355.661 961.873 351.625C961.873 348.277 961.169 345.143 959.761 342.223C958.428 339.501 956.615 337.315 954.324 335.664C952.017 334.028 949.583 333.21 947.021 333.21C943.741 333.21 941.008 334.41 938.821 336.81C936.574 339.272 935.45 342.368 935.45 346.098ZM1008.29 333.118L1007.03 332.935C1006.27 332.935 1005.66 333.233 1005.21 333.829C1004.48 334.823 1003.47 336.772 1002.18 339.677C995.725 354.155 992.362 361.746 992.093 362.449C991.838 363.137 991.666 363.641 991.575 363.962C991.441 364.498 991.374 364.987 991.374 365.43C991.374 366.271 991.666 366.814 992.25 367.058C992.744 367.272 992.991 367.548 992.991 367.884C992.991 368.236 992.752 368.411 992.272 368.411C991.793 368.411 991.284 368.266 990.744 367.976C990.22 367.685 989.643 367.173 989.014 366.439C987.576 364.788 986.101 362.265 984.588 358.871L975.039 337.613C973.856 334.907 972.89 333.401 972.141 333.095C971.901 332.988 971.662 332.935 971.422 332.935L970.186 333.118C969.692 333.118 969.445 332.92 969.445 332.522C969.445 332.247 969.609 332.002 969.939 331.788C970.254 331.559 970.748 331.444 971.422 331.444L975.848 331.765L981.824 331.444C983.262 331.444 983.981 331.804 983.981 332.522C983.981 332.904 983.742 333.095 983.262 333.095L981.555 332.889C980.537 332.889 980.027 333.279 980.027 334.059C980.027 334.64 980.334 335.633 980.948 337.04L989.509 357.106C990.123 358.573 990.565 359.307 990.834 359.307C991.029 359.307 991.306 358.849 991.666 357.931L1000.11 337.934C1000.85 336.237 1001.21 334.869 1001.21 333.829C1001.21 333.187 1000.78 332.866 999.912 332.866L997.979 333.095C997.5 333.095 997.26 332.904 997.26 332.522C997.26 332.232 997.425 331.979 997.755 331.765C998.084 331.551 998.548 331.444 999.147 331.444C999.761 331.444 1000.26 331.46 1000.65 331.49L1001.73 331.605C1002.57 331.712 1003.21 331.765 1003.66 331.765C1004.35 331.765 1004.92 331.735 1005.37 331.674L1006.4 331.49C1006.66 331.46 1006.99 331.444 1007.39 331.444C1007.8 331.444 1008.17 331.544 1008.52 331.742C1008.86 331.926 1009.03 332.201 1009.03 332.568C1009.03 332.935 1008.79 333.118 1008.29 333.118ZM1012.7 366.141L1009.55 366.485C1008.95 366.485 1008.52 366.386 1008.25 366.187C1007.96 365.973 1007.82 365.728 1007.82 365.453C1007.82 365.025 1008.07 364.811 1008.56 364.811L1009.66 364.971C1010.35 364.971 1010.91 364.681 1011.35 364.1C1012.17 363.03 1013.2 361.111 1014.43 358.344C1022.08 341.405 1026.03 332.683 1026.27 332.178C1026.52 331.674 1026.73 331.299 1026.9 331.054C1027.15 330.672 1027.41 330.481 1027.68 330.481C1027.95 330.481 1028.21 330.665 1028.47 331.031C1028.86 331.643 1029.4 332.728 1030.11 334.288L1041.81 360.408C1042.92 362.885 1043.9 364.337 1044.73 364.765C1045 364.903 1045.28 364.971 1045.57 364.971L1046.67 364.788C1047.16 364.788 1047.41 365.01 1047.41 365.453C1047.41 366.141 1046.81 366.485 1045.61 366.485L1041.25 366.141L1035.75 366.485C1034.98 366.485 1034.44 366.37 1034.11 366.141C1033.79 365.912 1033.64 365.682 1033.64 365.453C1033.64 365.025 1033.88 364.811 1034.35 364.811L1035.95 365.04C1036.38 365.04 1036.7 364.979 1036.89 364.857C1037.09 364.719 1037.19 364.513 1037.19 364.238C1037.19 363.962 1037.17 363.725 1037.14 363.527C1037.11 363.328 1037.07 363.106 1037.01 362.862C1036.87 362.403 1036.62 361.776 1036.26 360.981L1034.53 357.289C1034.31 356.8 1034.07 356.479 1033.82 356.326C1033.4 356.066 1032.8 355.936 1032.02 355.936H1020.4C1019.29 355.936 1018.56 356.211 1018.2 356.762C1018.08 356.945 1017.97 357.167 1017.86 357.427L1016.76 360.087C1015.94 362.105 1015.53 363.351 1015.53 363.825C1015.53 364.589 1016.1 364.971 1017.26 364.971L1018.36 364.788C1018.84 364.788 1019.08 365.01 1019.08 365.453C1019.08 366.141 1018.37 366.485 1016.94 366.485C1016.1 366.485 1015.43 366.447 1014.92 366.37C1013.9 366.217 1013.16 366.141 1012.7 366.141ZM1019.75 353.23C1019.75 353.704 1020.6 353.941 1022.29 353.941H1030C1031.43 353.941 1032.26 353.811 1032.47 353.551C1032.54 353.459 1032.58 353.352 1032.58 353.23C1032.58 353.108 1032.53 352.909 1032.42 352.634L1027.43 340.319C1026.85 338.851 1026.41 338.118 1026.11 338.118C1025.87 338.118 1025.56 338.584 1025.19 339.516L1020.04 352.198C1019.85 352.641 1019.75 352.985 1019.75 353.23Z" fill="url(#paint0_radial_5_30)"/>
</g>
<path fill-rule="evenodd" clip-rule="evenodd" d="M742.16 279.462L742.133 279.443C742.11 279.426 742.086 279.408 742.062 279.391C742.095 279.415 742.127 279.439 742.16 279.462Z" fill="url(#paint1_radial_5_30)"/>
<path fill-rule="evenodd" clip-rule="evenodd" d="M732.434 271.688L732.436 271.69C732.443 271.696 732.45 271.702 732.457 271.708C732.449 271.701 732.441 271.694 732.434 271.688Z" fill="url(#paint2_radial_5_30)"/>
<path fill-rule="evenodd" clip-rule="evenodd" d="M695.743 95.7939C692.025 94.0146 687.275 89.1446 685.342 85.1309C684.492 83.3677 683.693 81.9247 683.564 81.9247C682.986 81.9247 683.423 84.9856 684.358 87.4878C685.782 91.2972 687.106 93.2509 690.05 95.8889C693.963 99.3953 697.782 101.068 709.542 104.425C718.803 107.07 726.231 109.173 732.186 110.832C732.25 110.677 732.315 110.694 732.381 110.887C736.323 111.985 739.616 112.887 742.365 113.622C745.637 114.496 748.139 115.134 750.05 115.583L746.471 114.699C744.505 114.122 742.365 113.622 742.365 113.622C742.047 113.598 741.798 141.865 741.973 189.153C742.081 218.472 741.779 254.298 741.643 270.438C741.643 270.443 741.643 270.448 741.643 270.453C741.598 275.839 741.571 279.029 741.584 279.045C741.716 279.141 741.848 279.237 741.98 279.332L742.062 279.391L742.134 279.443L742.161 279.462C743.035 280.079 744.599 281.16 744.63 281.182H744.63L744.631 281.183L746.807 282.607L749.096 284.013C748.331 283.56 747.568 283.091 746.807 282.607C746.081 282.147 745.356 281.672 744.631 281.183L744.63 281.182H744.63C743.808 280.627 742.985 280.055 742.161 279.462L742.134 279.443C741.818 279.22 741.598 279.062 741.584 279.045C738.68 276.93 735.745 274.571 732.705 271.931C732.627 271.864 732.544 271.789 732.455 271.708L732.436 271.69L732.434 271.688C732.428 271.683 732.423 271.678 732.417 271.673C732.03 271.316 731.545 270.837 730.987 270.265L732.417 271.673C732.417 271.673 733.85 221.362 733.79 173.401C733.74 132.532 733.039 112.826 732.381 110.887C732.325 110.871 732.27 110.856 732.214 110.84C732.205 110.838 732.195 110.835 732.186 110.832C732.186 110.832 722.798 119.961 719.97 122.879C713.511 129.547 708.581 136.496 705.053 143.911C702.32 149.654 701.91 150.676 699.981 156.531C692.907 178.001 692.357 205.091 698.621 223.546C699.706 226.742 702.564 232.729 703.573 233.921C703.904 234.313 705.311 236.771 706.697 239.383C712.297 249.936 717.894 257.888 726.088 266.933C728.691 269.806 731.818 272.969 733.037 273.961C734.256 274.953 735.526 276.021 735.861 276.336C744.503 284.458 761.401 292.668 774.16 294.943C776.495 295.359 778.942 295.815 779.597 295.956C780.35 296.117 780.613 296.048 780.312 295.767C780.05 295.521 777.798 294.842 775.308 294.256C765.325 291.908 757.093 288.759 749.097 284.014L749.374 279.282L749.739 271.92C749.94 267.871 750.038 232.075 749.958 192.375L750.05 115.583C748.139 115.134 745.637 114.496 742.365 113.622C742.365 113.622 744.505 114.122 746.471 114.699L750.05 115.583C751.83 116.001 753.098 116.255 753.999 116.384L784.446 120.054C784.699 120.084 784.839 120.102 784.839 120.102C784.839 120.102 781.798 119.982 798.422 121.328C805.464 121.899 814.261 123.283 819.867 124.704C837.747 129.233 850.892 137.315 862.209 149.888C873.526 162.461 873.766 191.223 873.766 191.223C872.967 206.509 866.973 219.654 863.426 226.064C862.061 228.529 852.976 241.495 851.832 242.442C851.294 242.887 850.634 242.596 848.553 240.991L845.949 238.982L848.214 235.858C856.692 224.165 860.654 211.766 859.99 199.009C859.187 183.572 850.165 165.214 838.072 154.406C824.781 142.527 807.809 133.881 789.128 129.471C780.483 127.43 775.96 126.868 767.921 126.838L760.773 126.811L760.712 165.797L760.652 204.783C760.578 252.615 761.011 282.607 761.011 282.607V284.032V285.22C760.773 287.119 764.493 287.357 765.3 287.357C764.479 287.892 807.413 289.499 821.035 287.448C832.539 285.716 843.669 283.257 843.669 282.295C843.669 281.334 838.431 275.908 837.89 275.369C837.593 275.073 835.642 275.968 834.098 276.425C825.666 278.921 817.539 279.511 791.511 279.516L769.827 279.52V207.243C769.827 149.843 770.23 129.471 769.026 129.471H772.925C777.694 130.166 777.694 130.452 785.316 132.234C804.697 136.765 822.494 145.942 834.923 157.813C846.058 168.447 850.97 177.762 852.541 191.223C854.199 205.424 850.771 216.986 840.975 230.235L838.608 233.437L832.811 229.42C812.516 215.355 796.371 208.996 779.597 208.462C771.75 208.212 772.343 208.696 781.98 210.406C793.732 212.491 803.477 215.779 811.289 220.296C822.547 226.804 840.373 240.195 855.366 253.407C872.623 268.613 878.562 273.073 887.377 277.445C897.236 282.336 902.445 283.772 911.606 284.123C919.512 284.427 922.529 283.975 926.804 281.845C934.298 278.113 940.491 267.141 940.103 258.285L939.961 255.058L939.107 258.383C937.06 266.343 932.724 274.059 928.494 277.267C924.794 280.074 921.681 281.071 915.865 281.311C905.958 281.72 896.456 278.553 885.156 271.077C880.381 267.916 873.481 262.545 873.481 261.987C873.481 261.824 874.483 261.968 875.211 260.646C880.262 256.38 884.768 249.081 888.936 240.991C894.715 232.227 895.554 228.967 897.365 223.234C903.032 205.289 902.986 185.324 897.229 164.828C895.411 158.355 891.638 147.087 890.196 146.431L888.678 148.423L892.066 155.804C894.672 164.109 897.309 183.491 897.309 194.494C897.307 211.947 894.624 224.473 887.995 237.959C883.065 247.99 873.408 261.551 871.838 260.646C871.492 260.446 868.188 257.651 864.499 254.436L856.563 248.004C858.57 245.39 860.469 243.023 862.284 240.761C869.709 231.504 875.722 224.008 881.953 208.561C885.806 199.009 885.671 186.373 884.12 172.193C882.569 158.012 870.915 141.11 859.303 131.901C851.204 125.478 844.629 121.922 834.593 118.534C821.881 114.244 807.156 112.325 786.925 112.322C780.142 112.321 771.055 112.104 766.73 111.839C759.285 111.384 754.069 110.642 750.083 109.468C750.076 109.476 750.066 109.474 750.05 109.458C749.862 109.271 750.008 108.935 750.223 108.625C750.323 108.381 750.506 108.125 750.839 107.916C753.272 106.385 760.406 103.009 764.259 101.564C768.995 99.7862 775.997 98.1494 783.261 97.121C791.485 95.9569 808.421 95.8262 817.022 96.8603C820.159 97.2379 823.691 97.6535 824.871 97.7841C829.754 98.3251 836.631 100.611 844.172 104.201C862.19 112.778 875.931 126.085 886.525 145.217C887.502 146.981 888.471 148.423 888.678 148.423L890.196 146.431C876.987 121.454 848.987 97.1054 819.568 91.9726C806.031 89.611 787.75 89.5949 775.404 91.9337C762.302 94.416 751.087 98.8343 742.095 105.057C740.472 106.18 738.737 107.099 738.239 107.099C737.741 107.099 734.351 106.371 730.706 105.482C727.06 104.592 721.504 103.284 718.358 102.576C707.554 100.143 700.26 97.9551 695.743 95.7939ZM727.175 266.158L729.18 268.357L730.07 269.308L730.987 270.264C730.699 269.969 730.392 269.648 730.07 269.308C729.909 269.138 729.746 268.964 729.578 268.785C726.046 265.007 720.996 259.173 718.571 255.965C706.97 240.613 701.075 225.61 698.788 205.611C697.505 194.388 698.313 178.499 700.767 166.71C703.993 151.211 712.513 133.437 721.374 123.724L723.323 121.586L723.376 187.847C723.388 201.991 723.363 216.229 723.342 228.389C723.31 247.562 723.286 261.568 723.424 261.887L727.175 266.158Z" fill="url(#paint3_radial_5_30)"/>
<path d="M835.944 263.37C816.29 241.089 798.983 227.625 783.409 222.5C781.706 221.939 778.704 221.379 776.738 221.255L773.164 221.028L774.479 222.231C775.202 222.892 777.243 223.864 779.014 224.39C785.321 226.262 794.426 231.285 802.355 237.267C810.112 243.12 821.946 254.679 832.539 266.749C834.743 269.261 841.05 276.257 846.555 282.295L856.563 293.276L860.971 293.285C863.395 293.29 865.379 293.111 865.379 292.887C865.379 292.663 864.137 291.715 862.618 290.781C860.123 289.246 849.929 278.08 849.929 278.08L844.15 272.164C844.15 272.164 839.516 267.42 835.944 263.37Z" fill="url(#paint4_radial_5_30)"/>
<path d="M848.461 257.808C827.619 237.609 812.249 226.285 798.042 220.66C794.446 219.236 793.418 218.96 793.418 219.419C793.418 219.543 796.674 221.264 800.652 223.245C810.52 228.159 817.047 232.43 827.475 240.799C836.003 247.642 843.643 256.552 858.356 272.164C862.281 276.328 868.169 280.963 872.485 285.339L880.331 293.294H885.008C887.58 293.294 889.684 293.103 889.684 292.869C889.684 292.635 888.558 291.864 887.182 291.155C885.806 290.446 883.512 288.98 882.084 287.898C879.281 285.775 868.951 276.601 866.784 274.383C861.005 269.206 860.865 269.206 855.949 265.015L848.461 257.808Z" fill="url(#paint5_radial_5_30)"/>
<path d="M845.116 284.255C845.659 285.13 837.189 288.112 830.219 289.499C814.872 292.555 782.006 292.76 767.072 289.894C765.557 289.603 764.397 289.286 764.493 289.191C764.589 289.095 767.866 289.337 771.775 289.729C781.406 290.696 807.334 290.696 817.916 289.729C828.913 288.725 836.674 287.075 842.742 284.45C844.494 283.693 844.754 283.671 845.116 284.255Z" fill="url(#paint6_radial_5_30)"/>
<path d="M800.089 123.033C824.411 126.959 845.295 140.662 855.068 159.11C861.732 171.689 865.302 188.547 864.14 201.946C863.738 206.571 863.733 206.529 863.426 196.872C863.085 186.144 862.305 181.378 859.387 172.193C857.559 166.44 853.191 157.563 850.113 153.348C846.694 148.663 837.912 140.323 832.973 137.07C827.195 133.265 817.344 128.482 811.527 126.659C809.037 125.878 804.426 124.675 801.281 123.986C792.855 122.139 792.427 121.797 800.089 123.033Z" fill="url(#paint7_radial_5_30)"/>
<path fill-rule="evenodd" clip-rule="evenodd" d="M732.381 110.887C732.315 110.694 732.25 110.677 732.186 110.832L732.214 110.84L732.381 110.887ZM730.987 270.265L732.417 271.673L732.434 271.688C732.044 271.33 731.553 270.845 730.987 270.264L730.987 270.265ZM729.578 268.785C730.083 269.324 730.556 269.822 730.987 270.264L730.07 269.308C729.91 269.138 729.746 268.964 729.578 268.785ZM742.134 279.443C741.818 279.22 741.598 279.062 741.584 279.045C741.716 279.141 741.848 279.237 741.98 279.332L742.062 279.391L742.134 279.443ZM742.365 113.622C742.365 113.622 744.505 114.122 746.471 114.699L750.05 115.583C748.139 115.134 745.637 114.496 742.365 113.622ZM750.839 107.916C750.506 108.125 750.324 108.381 750.223 108.625C750.008 108.935 749.862 109.271 750.05 109.458C750.066 109.474 750.076 109.476 750.083 109.468L750.05 109.458L750.096 109.368L750.097 109.332C750.1 109.176 750.106 108.909 750.223 108.625C750.481 108.252 750.839 107.916 750.839 107.916ZM742.161 279.462C742.985 280.055 743.808 280.627 744.63 281.182C744.599 281.16 743.036 280.079 742.161 279.462ZM744.631 281.183C746.118 282.186 747.603 283.127 749.096 284.013L746.807 282.607L744.631 281.183Z" fill="url(#paint8_radial_5_30)"/>
<defs>
<radialGradient id="paint0_radial_5_30" cx="0" cy="0" r="1" gradientUnits="userSpaceOnUse" gradientTransform="translate(800.204 349.377) rotate(90) scale(19.0339 247.204)">
<stop stop-color="#B7AD9C"/>
<stop offset="0.477273" stop-color="#59534A" stop-opacity="0.66"/>
<stop offset="1" stop-color="#EAE3DB" stop-opacity="0.86"/>
</radialGradient>
<radialGradient id="paint1_radial_5_30" cx="0" cy="0" r="1" gradientUnits="userSpaceOnUse" gradientTransform="translate(775.595 194.704) rotate(30.8023) scale(191.876 318.41)">
<stop offset="0.17136" stop-color="#B7AD9C"/>
<stop offset="0.63966" stop-color="#59534A" stop-opacity="0.66"/>
<stop offset="0.718801" stop-color="#EAE3DB" stop-opacity="0.86"/>
</radialGradient>
<radialGradient id="paint2_radial_5_30" cx="0" cy="0" r="1" gradientUnits="userSpaceOnUse" gradientTransform="translate(778.136 195.778) rotate(29.0258) scale(199.806 319.824)">
<stop offset="0.17136" stop-color="#B7AD9C"/>
<stop offset="0.63966" stop-color="#59534A" stop-opacity="0.66"/>
<stop offset="0.718801" stop-color="#EAE3DB" stop-opacity="0.86"/>
</radialGradient>
<radialGradient id="paint3_radial_5_30" cx="0" cy="0" r="1" gradientUnits="userSpaceOnUse" gradientTransform="translate(775.768 195.248) rotate(30.5111) scale(192.284 317.318)">
<stop offset="0.17136" stop-color="#B7AD9C"/>
<stop offset="0.63966" stop-color="#59534A" stop-opacity="0.66"/>
<stop offset="0.718801" stop-color="#EAE3DB" stop-opacity="0.86"/>
</radialGradient>
<radialGradient id="paint4_radial_5_30" cx="0" cy="0" r="1" gradientUnits="userSpaceOnUse" gradientTransform="translate(775.768 195.248) rotate(30.5111) scale(192.284 317.318)">
<stop offset="0.17136" stop-color="#B7AD9C"/>
<stop offset="0.63966" stop-color="#59534A" stop-opacity="0.66"/>
<stop offset="0.718801" stop-color="#EAE3DB" stop-opacity="0.86"/>
</radialGradient>
<radialGradient id="paint5_radial_5_30" cx="0" cy="0" r="1" gradientUnits="userSpaceOnUse" gradientTransform="translate(775.768 195.248) rotate(30.5111) scale(192.284 317.318)">
<stop offset="0.17136" stop-color="#B7AD9C"/>
<stop offset="0.63966" stop-color="#59534A" stop-opacity="0.66"/>
<stop offset="0.718801" stop-color="#EAE3DB" stop-opacity="0.86"/>
</radialGradient>
<radialGradient id="paint6_radial_5_30" cx="0" cy="0" r="1" gradientUnits="userSpaceOnUse" gradientTransform="translate(775.768 195.248) rotate(30.5111) scale(192.284 317.318)">
<stop offset="0.17136" stop-color="#B7AD9C"/>
<stop offset="0.63966" stop-color="#59534A" stop-opacity="0.66"/>
<stop offset="0.718801" stop-color="#EAE3DB" stop-opacity="0.86"/>
</radialGradient>
<radialGradient id="paint7_radial_5_30" cx="0" cy="0" r="1" gradientUnits="userSpaceOnUse" gradientTransform="translate(775.768 195.248) rotate(30.5111) scale(192.284 317.318)">
<stop offset="0.17136" stop-color="#B7AD9C"/>
<stop offset="0.63966" stop-color="#59534A" stop-opacity="0.66"/>
<stop offset="0.718801" stop-color="#EAE3DB" stop-opacity="0.86"/>
</radialGradient>
<radialGradient id="paint8_radial_5_30" cx="0" cy="0" r="1" gradientUnits="userSpaceOnUse" gradientTransform="translate(775.768 195.248) rotate(30.5111) scale(192.284 317.318)">
<stop offset="0.17136" stop-color="#B7AD9C"/>
<stop offset="0.63966" stop-color="#59534A" stop-opacity="0.66"/>
<stop offset="0.718801" stop-color="#EAE3DB" stop-opacity="0.86"/>
</radialGradient>
<clipPath id="clip0_5_30">
<rect width="494.656" height="38.1595" fill="white" transform="translate(553 330.344)"/>
</clipPath>
</defs>
</svg>
